<svg width="20" viewBox="0 0 24 24" fill="none" xmlns="http://www.w3.org/2000/svg">
<path d="M8.19834 20.4571C7.74001 20.4571 7.34779 20.2941 7.02168 19.9679C6.69501 19.6413 6.53168 19.2488 6.53168 18.7904V8.79045C6.53168 8.33211 6.69501 7.93989 7.02168 7.61378C7.34779 7.28711 7.74001 7.12378 8.19834 7.12378H21.5317C21.99 7.12378 22.3825 7.28711 22.7092 7.61378C23.0353 7.93989 23.1983 8.33211 23.1983 8.79045V18.7904C23.1983 19.2488 23.0353 19.6413 22.7092 19.9679C22.3825 20.2941 21.99 20.4571 21.5317 20.4571H8.19834ZM14.865 14.4779C14.9345 14.4779 15.0072 14.4674 15.0833 14.4463C15.16 14.4257 15.2331 14.3946 15.3025 14.3529L21.1983 10.6654C21.3095 10.596 21.3928 10.5093 21.4483 10.4054C21.5039 10.301 21.5317 10.1863 21.5317 10.0613C21.5317 9.7835 21.4136 9.57517 21.1775 9.43628C20.9414 9.29739 20.6983 9.30433 20.4483 9.45711L14.865 12.9571L9.28168 9.45711C9.03168 9.30433 8.78862 9.30072 8.55251 9.44628C8.3164 9.59239 8.19834 9.79739 8.19834 10.0613C8.19834 10.2002 8.22612 10.3216 8.28168 10.4254C8.33723 10.5299 8.42057 10.6099 8.53168 10.6654L14.4275 14.3529C14.497 14.3946 14.57 14.4257 14.6467 14.4463C14.7228 14.4674 14.7956 14.4779 14.865 14.4779Z" fill="#D3D3D3"></path>
</svg>