<svg width="12" viewBox="0 0 18 18" fill="none" xmlns="http://www.w3.org/2000/svg"><path d="M12.556 11.7383L12.101 12.1913C12.101 12.1913 11.018 13.2673 8.063 10.3293C5.108 7.39126 6.191 6.31525 6.191 6.31525L6.477 6.02925C7.184 5.32725 7.251 4.19925 6.634 3.37526L5.374 1.69225C4.61 0.672255 3.135 0.537255 2.26 1.40725L0.690002 2.96726C0.257002 3.39926 -0.0329985 3.95725 0.00200151 4.57725C0.0920015 6.16425 0.810001 9.57726 4.814 13.5593C9.061 17.7813 13.046 17.9493 14.675 17.7973C15.191 17.7493 15.639 17.4873 16 17.1273L17.42 15.7153C18.38 14.7623 18.11 13.1273 16.882 12.4603L14.972 11.4213C14.166 10.9833 13.186 11.1123 12.556 11.7383Z" fill="#D3D3D3"></path></svg>